<svg id="lines" xmlns="http://www.w3.org/2000/svg" viewBox="0 0 2003 853"><title>inline-lineswhite</title><polyline points="88.5 1.5 75.5 267.3 76.6 263.8" fill="none" stroke="#fff" stroke-linecap="round" stroke-linejoin="round" stroke-width="3"/><polyline points="88.5 1.5 297.7 61.4 399.3 108 459 145.9 451.6 255.6 399.3 108 329.5 277.4 294.7 60.6 270.9 202.5 160.4 240.5 294.7 60.6" fill="none" stroke="#f2f2f2" stroke-linecap="round" stroke-linejoin="round" stroke-width="3"/><polyline points="329.5 277.4 216.8 366.4 137.5 278.5 83.2 375.4 34.2 293.6 1.5 436.8 184.7 487.3 81 495.4 83.9 540.6 142.1 528.4 187.7 488" fill="none" stroke="#fefefe" stroke-linecap="round" stroke-linejoin="round" stroke-width="3"/><line x1="81" y1="495.4" x2="142.1" y2="528.4" fill="none" stroke="#fefefe" stroke-linecap="round" stroke-linejoin="round" stroke-width="3"/><polyline points="137.3 280 144.8 393.4 168.2 359.4 188.9 488.2 186.4 560.7 308.2 517.9 168.1 358.3" fill="none" stroke="#fefefe" stroke-linecap="round" stroke-linejoin="round" stroke-width="3"/><polyline points="390.1 324.12 495.4 267.4 463.8 501.7 565 522.1 586.3 442.4 495.4 267.4 631.7 337.2 586.3 442.4" fill="none" stroke="#f2f2f2" stroke-linecap="round" stroke-linejoin="round" stroke-width="3"/><polyline points="463.8 501.7 412.9 435.7 386.6 326 390.1 324.12" fill="none" stroke="#fefefe" stroke-linecap="round" stroke-linejoin="round" stroke-width="3"/><polyline points="386.6 326 308.2 517.9 366 477.3 409.8 538.2 463.8 501.7" fill="none" stroke="#fefefe" stroke-linecap="round" stroke-linejoin="round" stroke-width="3"/><polyline points="631.3 337.5 651.5 425 692 498.1 818.9 460.4 835.4 379.6" fill="none" stroke="#e0e0e0" stroke-linecap="round" stroke-linejoin="round" stroke-width="3"/><polyline points="919.1 519.6 952.3 446.2 976.5 535.1 1079.7 505.9 1114.3 522.1 1114.3 463.8" fill="none" stroke="#e0e0e0" stroke-linecap="round" stroke-linejoin="round" stroke-width="3"/><polyline points="835.4 379.6 909.3 410.1 883.2 461.3 919.1 519.6" fill="none" stroke="#e0e0e0" stroke-linecap="round" stroke-linejoin="round" stroke-width="3"/><polyline points="631.7 337.2 706.5 372.3 683.8 404.5 768.7 436.2 835.4 379.6" fill="none" stroke="#e0e0e0" stroke-linecap="round" stroke-linejoin="round" stroke-width="3"/><polyline points="952.3 446.2 1024.9 494.1 1114.7 463.9" fill="none" stroke="#e0e0e0" stroke-linecap="round" stroke-linejoin="round" stroke-width="3"/><polyline points="1114.3 463.8 1313.7 522 1364.3 512.8 1300.6 470.5 1231.2 506.2 1161 507.5 1113.7 464" fill="none" stroke="#e0e0e0" stroke-linecap="round" stroke-linejoin="round" stroke-width="3"/><path d="M1687.3,568.3s-29.1,50.5-28,53.7l31.8,99.6-274.2,98.3L1602.5,851l88.6-129.4" fill="none" stroke="#d1d1d1" stroke-linecap="round" stroke-linejoin="round" stroke-width="3"/><polyline points="1602.6 851.1 1693 851.5 1691.1 721.6 1793.3 673.4 1824.3 572.9 1876.6 668.4 1925.7 640.4" fill="none" stroke="#d1d1d1" stroke-linecap="round" stroke-linejoin="round" stroke-width="3"/><polyline points="1793.3 673.4 1864.2 790.4 2001.5 784.5 1964.9 438.1" fill="none" stroke="#d1d1d1" stroke-linecap="round" stroke-linejoin="round" stroke-width="3"/><polyline points="1300.6 470.5 1313.8 522 1228.17 559.62" fill="none" stroke="#e0e0e0" stroke-linecap="round" stroke-linejoin="round" stroke-width="3"/><polygon points="88.5 1.5 17.3 219.5 75.5 267.3 160.4 240.5 88.5 1.5" fill="none" stroke="#fff" stroke-linecap="round" stroke-linejoin="round" stroke-width="3"/><line x1="1228.17" y1="559.62" x2="1239" y2="502.19" fill="none" stroke="#e0e0e0" stroke-linecap="round" stroke-linejoin="round" stroke-width="3"/><polyline points="1532.8 517.5 1381.3 470.1 1364.3 512.8 1392.17 568.3 1336.17 568.3 1313.8 522" fill="none" stroke="#e0e0e0" stroke-linecap="round" stroke-linejoin="round" stroke-width="3"/><polyline points="1424.5 483.62 1461.17 530.9 1496.28 506.07 1508.17 559.62 1532.8 517.5" fill="none" stroke="#e0e0e0" stroke-linecap="round" stroke-linejoin="round" stroke-width="3"/><line x1="1392.17" y1="568.3" x2="1424.5" y2="483.62" fill="none" stroke="#e0e0e0" stroke-linecap="round" stroke-linejoin="round" stroke-width="3"/><polyline points="1532.8 517.5 1596.17 530.9 1633.4 392.1 1687.3 568.3 1726.1 658.7 1824.3 572.9 1925.7 640.4 1964.9 438.1 1848.3 345.1 1824.2 450.9 1763.7 435.3 1750.6 585.5 1633.4 392.1 1532.8 517.5" fill="none" stroke="#e0e0e0" stroke-linecap="round" stroke-linejoin="round" stroke-width="3"/></svg>