<svg id="lines" xmlns="http://www.w3.org/2000/svg" viewBox="0 0 2010.8 852.6"><title>Artboard 1</title><polyline points="97.5 0.8 85.6 263.1 85.6 263.1" fill="none" stroke="#000" stroke-miterlimit="10" stroke-width="0.5"/><polyline points="97.5 0.8 306.7 60.7 408.3 107.3 468 145.2 460.6 254.9 408.3 107.3 338.5 276.7 304.1 63.4 279.9 201.8 169.4 239.8 303.7 59.9" fill="none" stroke="#000" stroke-miterlimit="10" stroke-width="0.5"/><line x1="97.5" y1="3.4" x2="84.5" y2="266.6" fill="none" stroke="#000" stroke-miterlimit="10" stroke-width="0.5"/><polyline points="338.5 276.7 225.8 365.7 146.5 277.8 92.2 374.7 43.2 292.9 10.5 436.1 193.7 486.6 90 494.7 92.9 539.9 151.1 527.7 196.7 487.3" fill="none" stroke="#000" stroke-miterlimit="10" stroke-width="0.5"/><line x1="90" y1="494.7" x2="151.1" y2="527.7" fill="none" stroke="#000" stroke-miterlimit="10" stroke-width="0.5"/><polyline points="146.3 279.3 153.8 392.7 177.2 358.7 197.9 487.5 195.4 560 317.2 517.2 177.1 357.6" fill="none" stroke="#000" stroke-miterlimit="10" stroke-width="0.5"/><polyline points="395.6 325.3 318 515.2 375 476.6 418.8 537.5 472.8 501 421.9 435 395.6 325.3 504.4 266.7 472.8 501 574 521.4 595.3 441.7 504.4 266.7 640.7 336.5 595.3 441.7" fill="none" stroke="#000" stroke-miterlimit="10" stroke-width="0.5"/><polyline points="640.3 336.8 660.5 424.3 701 497.4 827.9 459.7 844.4 378.9" fill="none" stroke="#000" stroke-miterlimit="10" stroke-width="0.5"/><polyline points="640.7 336.5 715.5 371.6 692.8 403.8 777.7 435.5 844.4 378.9 918.3 409.4 892.2 460.6 928.1 518.9 961.3 445.5 985.5 534.4 1088.7 505.2 1123.3 521.4 1123.3 463.1" fill="none" stroke="#000" stroke-miterlimit="10" stroke-width="0.5"/><polyline points="961.3 445.5 1033.9 493.4 1123.7 463.2" fill="none" stroke="#000" stroke-miterlimit="10" stroke-width="0.5"/><polyline points="1123.3 463.1 1322.7 521.3 1373.3 512.1 1309.6 469.8 1240.2 505.5 1170 506.8 1122.7 463.3" fill="none" stroke="#000" stroke-miterlimit="10" stroke-width="0.5"/><polyline points="1642.4 391.4 1696.3 567.6 1735.1 658 1833.3 572.2 1934.7 639.7 1973.9 437.4 1857.3 344.4 1833.2 450.2 1772.7 434.6 1759.6 584.8 1642.4 391.4 1541.8 516.8 1390.3 469.4 1373.3 512.1" fill="none" stroke="#000" stroke-miterlimit="10" stroke-width="0.5"/><path d="M1696.3,567.6s-29.1,50.5-28,53.7l31.8,99.6-274.2,98.3,185.6,31.1,75.8-124.9" fill="none" stroke="#000" stroke-miterlimit="10" stroke-width="0.5"/><polyline points="1611.6 850.4 1702 850.8 1703 722.8 1802.3 672.7 1834.6 577 1885.6 667.7 1934.7 639.7" fill="none" stroke="#000" stroke-miterlimit="10" stroke-width="0.5"/><polyline points="1802.3 672.7 1873.2 789.7 2010.5 783.8 1973.9 437.4" fill="none" stroke="#000" stroke-miterlimit="10" stroke-width="0.5"/><line x1="1309.6" y1="469.8" x2="1322.8" y2="521.3" fill="none" stroke="#000" stroke-miterlimit="10" stroke-width="0.5"/><polygon points="97.5 0.8 26.3 218.8 84.5 266.6 169.4 239.8 97.5 0.8" fill="none" stroke="#000" stroke-miterlimit="10" stroke-width="0.5"/></svg>