<svg id="Layer_1_copy" data-name="Layer 1 copy" xmlns="http://www.w3.org/2000/svg" xmlns:xlink="http://www.w3.org/1999/xlink" viewBox="0 0 1353.34 533.22"><defs><style>.cls-1{fill:none;}.cls-2{clip-path:url(#clip-path);}.cls-3{fill:url(#linear-gradient);}</style><clipPath id="clip-path" transform="translate(-2881.11 -276.78)"><rect class="cls-1" x="2901.89" y="244.17" width="1280" height="621.65"/></clipPath><linearGradient id="linear-gradient" x1="2881.11" y1="543.39" x2="4234.45" y2="543.39" gradientUnits="userSpaceOnUse"><stop offset="0" stop-color="#fff"/><stop offset="1" stop-color="#b3b3b3"/></linearGradient></defs><title>lines-A</title><g class="cls-2"><path class="cls-3" d="M4234.3,807.07a1,1,0,0,0,.09-0.17,1,1,0,0,0,0-.19,1,1,0,0,0,0-.15s0,0,0,0,0,0,0,0l-27-236.43s0,0,0-.06a1,1,0,0,0-.06-0.18,1,1,0,0,0,0-.13l0-.05a3.5,3.5,0,0,0-.23-0.26l-76.48-60.68h0a4,4,0,0,0-.36-0.17H4130a1,1,0,0,0-.22,0,1,1,0,0,0-.22.07l-0.14.05a1,1,0,0,0-.2.17l-0.08.07v0a1,1,0,0,0-.1.19,1,1,0,0,0-.08.17v0l-16.27,71.32-39.53-11.36h-0.09l-0.09,0h-0.1l-0.2,0-0.17.06-0.17.1-0.14.12a1,1,0,0,0-.12.15,1,1,0,0,0-.09.17,0.25,0.25,0,0,0-.06.19,0.89,0.89,0,0,0,0,.09l-8.68,97.64-77.92-129.44,0-.05-0.12-.14a0.93,0.93,0,0,0-.06-0.07h0l-0.08,0-0.17-.08-0.1,0h-0.38l-0.1,0h-0.07l-0.09,0-0.12,0h0l-0.05.05-0.14.12-0.07.06-68.57,85.52-101.44-32.34a0.94,0.94,0,0,0-.17,0,1,1,0,0,0-.2,0l-0.17,0a0.59,0.59,0,0,0-.35.16,1,1,0,0,0-.16.12,1,1,0,0,0-.11.17,1,1,0,0,0-.09.14l-10.57,27.88-41.08-28.35h0l-0.15-.07-0.15-.06H3760l-0.12.06-0.13,0-47,26.49-46.91-1.07-29.71-29.7a1,1,0,0,0-.15-0.1,1,1,0,0,0-.15-0.1h0a12.32,12.32,0,0,0-.36-0.07,1,1,0,0,0-.22,0,0.94,0.94,0,0,0-.15,0l-61.42,22.84L3526.05,577l0,0-0.06,0,0,0-0.12,0-0.16-.05h-0.22l-0.17,0h-0.07l-0.13.06-0.15.08-0.06,0a1,1,0,0,0-.09.11,0.93,0.93,0,0,0-.09.09l0,0,0,0.06,0,0-23.18,46.78-21.29-36.44L3497.88,553s0,0,0,0l0-.06a0.94,0.94,0,0,0,0-.14,1,1,0,0,0,0-.2,1,1,0,0,0,0-.19,0.69,0.69,0,0,0-.13-0.35,1,1,0,0,0-.11-0.16,1,1,0,0,0-.15-0.12,0.94,0.94,0,0,0-.11-0.09h-0.05l0,0-50.59-19.25h-0.08l-0.08,0h-0.31l-0.14,0-0.09,0-0.12.06-0.13.08,0,0-45,38.12-57.31-21.34,15.22-20.93s0,0,0-.06a1,1,0,0,0,.07-0.11,0.92,0.92,0,0,0,0-.1,1,1,0,0,0,0-.57,1,1,0,0,0-.06-0.18,1,1,0,0,0-.23-0.31,0.94,0.94,0,0,0-.07-0.07l-0.09,0-0.08-.06-50-23-91-47-0.07,0-0.17-.05-0.08,0h-0.13l-0.17,0-0.12,0s-0.06.09-.1,0.11a0.65,0.65,0,0,1-.08.08H3217v-0.18l-75.28,38-0.2.06a1.9,1.9,0,0,0-.2.1s-0.09,0-.12.08l-0.09.1a1,1,0,0,0-.09.14s0,0,0,.07l-51.4,127.51-93.93-104.8-0.08-.06-0.07-.07,0,0-0.08,0-0.16-.08-0.09,0-0.12,0h-0.28l-0.1,0-0.17.06-0.1,0-0.08.07-0.08,0s0,0-.05.07l-0.08.08h0l-13.39,18.74L2977,467.54l50.11,55.89a1,1,0,0,0,.21.15,0.71,0.71,0,0,0,.53.18,1,1,0,0,0,.34-0.06l0.1-.05a1,1,0,0,0,.18-0.1l76-60,0,0,0.12-.12,0.05-.08,0.05-.09,0,0,48-111.58,32.17,97.49h0l0,0a1,1,0,0,0,.15.26l0.08,0.08a1,1,0,0,0,.19.15l0.11,0.06a1,1,0,0,0,.25.07s0,0.14.07,0.14,0.1,0.12.12,0.12H3186v0h-0.1a1.36,1.36,0,0,0,.31-0.17s0-.07,0-0.07a1.1,1.1,0,0,0,.22-0.16l0.11-.08a0.81,0.81,0,0,0,.28-0.5,1,1,0,0,0,0-.18h0l5-74a0.94,0.94,0,0,0,0-.12,1,1,0,0,0,0-.2,1.28,1.28,0,0,0-.16-0.34,1,1,0,0,0-.15-0.15,0.94,0.94,0,0,0-.08-0.08l-38-26-0.05,0-0.08-.05h0l-72-33-0.08,0s0,0.07-.07.07l0,0.09h0l-138-38.09s-0.06-.05-0.08-0.06-0.06,0-.1,0l0,0h-0.17l-0.1,0h-0.1l-0.08,0-0.09,0-0.09.07-0.09.06-0.05.06-0.07.06-0.06.09-0.06.09s0,0.06,0,.08l0,0.06-48,147v0a1,1,0,0,0,0,.25,1,1,0,0,0,0,.14,11.92,11.92,0,0,0,.11.37,1,1,0,0,0,.08.11,1,1,0,0,0,.16.2h0l38,31h0l0.11,0.07,0.11,0.06,0.07,0,0.19,0,0.12,0H2933V457h-0.1v-0.12a1.13,1.13,0,0,0,.29-0.1l57.24-18.11a1.62,1.62,0,0,0,.2.06,2,2,0,0,0,.36,0h0a1.61,1.61,0,0,0,.23,0,0.56,0.56,0,0,0,.06,0l0.13-.08a0.93,0.93,0,0,0,.21-0.18l0.07-.06,0.11-.15,74.38-23.49h0a1,1,0,0,0,.32-0.18l0,0a0.74,0.74,0,0,0,.27-0.41,1,1,0,0,0,.06-0.19l14.43-94.29,21.5,142.71L3028,521.4l-51.37-57.3,0,0-0.11-.09a0.94,0.94,0,0,0-.09-0.08h0l-0.09,0-0.13,0-0.16,0h-0.14l-0.1,0-0.13,0-0.09,0-0.14.07-0.12.08,0,0,0,0a1,1,0,0,0-.1.13,0.93,0.93,0,0,0-.07.08l-36.15,62.53-33.13-55.54h0a1,1,0,0,0-.18-0.2,1,1,0,0,0-.08-0.09l-0.1,0a1,1,0,0,0-.26-0.12h0a0.92,0.92,0,0,0-.15,0,0.67,0.67,0,0,0-.48.08l-0.1,0h0a1,1,0,0,0-.2.18,1,1,0,0,0-.09.08s0,0.06,0,.08a1,1,0,0,0-.12.27h0l-22.79,100a1,1,0,0,0,0,.18,1,1,0,0,0,0,.2,1,1,0,0,0,.06.18,0.54,0.54,0,0,0,.2.32,1,1,0,0,0,.13.14,1,1,0,0,0,.18.09,0.94,0.94,0,0,0,.17.08L3004,604.3l-26.25,26.31L2938.36,610h0a2.39,2.39,0,0,0-.38-0.09h0a0.94,0.94,0,0,0-.15,0l-0.19,0a1.9,1.9,0,0,0-.33.2,1,1,0,0,0-.14.17,1,1,0,0,0-.08.1v0a1,1,0,0,0-.06.19,1,1,0,0,0,0,.19s0,0,0,0v31.5a1.07,1.07,0,0,0,0,.13,1,1,0,0,0,0,.13l0,0.07a0.92,0.92,0,0,0,.05.13,1,1,0,0,0,.12.18l0.09,0.1a1,1,0,0,0,.19.13l0.11,0.06a1,1,0,0,0,.36.07h0a1,1,0,0,0,.25,0l40-10.5h0l0.08,0,0.09,0,0.15-.09,0.07-.06,0,0h0l26.31-26.37,0.59,46.69a1.84,1.84,0,0,1,.05.31l0,0a1,1,0,0,0,.06.11,1,1,0,0,0,.13.19l0.09,0.09a1,1,0,0,0,.19.13s0.07,0.12.1,0.13a1.14,1.14,0,0,0,.35.15h0a0.79,0.79,0,0,0,0-.09,1,1,0,0,0,.26.05l83.35-28h0l0-.15s0-.07,0-0.08,0.06-.06.08-0.08l0.14-.08h0l37.73-25.27,30.54,39.09a1,1,0,0,0,.23.18,1,1,0,0,0,.12.09,1,1,0,0,0,.44.11h0a1,1,0,0,0,.31-0.05l0.09,0a1,1,0,0,0,.18-0.09l35-24.78,67.07,14.79c0.07,0,.14.37,0.21,0.37H3262v-0.58c1,0,.2-0.06.2-0.06a1.72,1.72,0,0,0,.42-0.08l0.15-.07a1.26,1.26,0,0,0,.2-0.11l0.11-.1a0.63,0.63,0,0,0,.2-0.28,1,1,0,0,0,.07-0.14l15.46-51,28.85-69.63L3321.92,564a1,1,0,0,0,.07.15,0.93,0.93,0,0,0,0,.09l27,48.11,0,0,0.07,0.09,0.13,0.14,0.08,0.06,0.18,0.09s0.06,0.09.09,0.1a1.12,1.12,0,0,0,.28.11H3350v-0.15a0.94,0.94,0,0,0,.21,0h0l85.58-24.1h0a1,1,0,0,0,.29-0.15l0,0a0.74,0.74,0,0,0,.28-0.39,1,1,0,0,0,.07-0.19l10.67-53.34,48.44,18.43-17.49,34.26a0.93,0.93,0,0,0,0,.1,0.94,0.94,0,0,0-.07.38,1,1,0,0,0,0,.19,1,1,0,0,0,.07.19,0.94,0.94,0,0,0,0,.1l22.5,38.52,0.08,0.1,0.06,0.07a1,1,0,0,0,.27.21h0s0,0.36,0,.37a2.59,2.59,0,0,0,.4.45H3501v-0.12c1,0,.42-0.31.51-0.34s0.18-.18.21-0.19a2.47,2.47,0,0,0,.21-0.14l0,0a1.13,1.13,0,0,0,.28-0.25l0.06-.09a1.06,1.06,0,0,0,.07-0.1l22.84-46.1,15.71,56.72a1,1,0,0,0,.08.17,1,1,0,0,0,.06.13,1,1,0,0,0,.13.13,1,1,0,0,0,.1.1,1,1,0,0,0,.19.1l0.1,0.05a1,1,0,0,0,.32.05,1,1,0,0,0,.26-0.06v0h0l71.71-19.16L3635,629.19l0,0s-0.16,0-.14,0l0.15,0.07V630h0.4a3,3,0,0,0,.34-0.42s0.06-.2.09-0.21a1.47,1.47,0,0,0,.23-0.24s0-.07.05-0.09a1.11,1.11,0,0,0,.18-0.28s0,0,0,0a1.06,1.06,0,0,0,.05-0.21,2.19,2.19,0,0,0-.16-0.19l-0.19,0V590.23L3664.42,619h0.13l0.08-.24s0.1-.08.14-0.06a0.9,0.9,0,0,0,.22.08,1,1,0,0,0,.24,0,1.18,1.18,0,0,0,.14.07L3713,620h0v-0.14a1.52,1.52,0,0,0,.33-0.05l0.07,0,0.07,0,46.11-26,8.85,34.77a1,1,0,0,0,.07.15,1,1,0,0,0,.06.15,1,1,0,0,0,.12.14,0.57,0.57,0,0,0,.28.21l0.11,0.06a1,1,0,0,0,.33.06l0.21,0,33-7,0,0,0.16-.06,0.08,0,0.08,0,0,0a1,1,0,0,0,.2-0.2l0,0h0s0-.06,0-0.09a1,1,0,0,0,.07-0.12L3814,593.51l101.19,32.27a1.28,1.28,0,0,0,.29.14V626H3915v-0.09c1,0,.49-0.08.61-0.13l0.21-.07a1.32,1.32,0,0,0,.32-0.22l0.07,0L3984,540.87l35.34,116.38-17.83,38a0.93,0.93,0,0,0,0,.14,0.66,0.66,0,0,0,0,.45,0.93,0.93,0,0,0,0,.14L4023,763.21l2,1.23,66.91-33.8,47.63,78.7a1.13,1.13,0,0,0,.17.18l0,0a1,1,0,0,0,.28.18s0.05,0.11.08,0.12a1.2,1.2,0,0,0,.34.15h0l93-2.34v0l0.08,0a1,1,0,0,0,.14-0.06l0.2-.07a1,1,0,0,0,.15-0.11A0.66,0.66,0,0,0,4234.3,807.07Zm-93.29.74-47.52-78.61,20.21-63.08,33.1,60.68a1,1,0,0,0,.08.11l0.07,0.1,0.12,0.1,0.09,0.07,0.16,0.07,0.08,0a1,1,0,0,0,.27,0,1,1,0,0,0,.39-0.09h0L4182.32,711h0l0.17-.11,0,0,0.07-.07,0.06-.06,0.06-.07v0a1,1,0,0,0,.06-0.12,1,1,0,0,0,.06-0.15s0-.05,0-0.08h0l23.36-133.15,26.09,228.48Zm-116.2-45.41-21.27-66.62,16.89-36,26.12,60.95a1,1,0,0,0,.16.26h0a1,1,0,0,0,.3.22l0.09,0a0.91,0.91,0,0,0,.73,0h0l0.08-.06a1,1,0,0,0,.17-0.1l63.31-54.43-19.85,62ZM4148.1,725l-31.79-58.28,63.57,43.19Zm-74.3-153.59,39.38,11.32h0s0,0.11,0,.11a1.55,1.55,0,0,0,.22.13H4114v0h-0.52a1.19,1.19,0,0,0,.3-0.16s0.06-.09.09-0.1a1.13,1.13,0,0,0,.19-0.13,1.16,1.16,0,0,0,.09-0.1,1,1,0,0,0,.14-0.16,1,1,0,0,0,.06-0.13,1,1,0,0,0,.07-0.15s0,0,0,0v0l16.15-70.8,74.79,59.34L4181.18,708.4,4114,662.77l-0.06,0-0.13-.06-0.06,0h-0.07l-0.1,0h-0.28l-0.1,0-0.14,0-0.08,0h0l0,0-0.08.06-0.06,0-65,55.84L4021.4,657l-33.64-110.81,75.34,125.17,0.06,0.08,0.06,0.07a1,1,0,0,0,.26.21h0a1,1,0,0,0,.31.09H4064a1,1,0,0,0,.32-0.06l0.09,0,0.1,0,0.06-.06a1,1,0,0,0,.16-0.15l0.1-.13a1.2,1.2,0,0,0,.13-0.35s0,0,0-.08Zm-303.67,55.69-8.28-32.52,38,26.23Zm-155.9-10.22a0.14,0.14,0,0,0,0,0,0.6,0.6,0,0,0-.17-0.06,0.76,0.76,0,0,0-.2,0h-0.12l-71.12,19-15.41-55.48L3572.92,612h0a3.06,3.06,0,0,1,.53,0c0.1,0-.45-0.1.55-0.1h0s-0.22,0-.11-0.07L3634,589.26V626.7ZM3434.63,587l-84.25,23.73-26.55-47.3-14.45-56.84,47,21.61-15.28,21a1.09,1.09,0,0,1-.13.24s0,0,0,.06a1,1,0,0,0,0,.2,0.86,0.86,0,0,0,.21.69,1,1,0,0,0,.14.15l0,0a1,1,0,0,0,.18.09l0.06,0,59.1,22a1.89,1.89,0,0,0,.35.06V573h0a1.29,1.29,0,0,0,.31-0.17s0.06-.09.09-0.1a1.14,1.14,0,0,0,.2-0.15l0,0,43.21-36.65ZM3261.7,627.13L3196,613,3217.44,461l59.35,116.28Zm-102,10.3-30.52-39.07a0.94,0.94,0,0,0-.12-0.1,1,1,0,0,0-.16-0.13,1,1,0,0,0-.17-0.07,1,1,0,0,0-.19-0.06h-0.18a1,1,0,0,0-.2,0,1,1,0,0,0-.18.07,1,1,0,0,0-.15.06l-35.8,24L3141.65,499l17.27,72v0a1,1,0,0,0,0,.11,1,1,0,0,0,.12.23l0,0,34.32,42.17Zm-152.81-33.68s0,0,0-.06,0.06,0,.06-0.06l0.06,0h0l-10.64-81.79,91.81,102.47-80.66,27.15Zm153.92-33.44-17.76-74,72.59-36.78-21.41,151.83Zm117,4.53L3219.2,460.08l87.42,45.15ZM2979.89,542h0.05a1.09,1.09,0,0,0,.95-1.17l0-.64,13.37-18.74,10.48,81L2883.29,571l22-96.62L2938,529.28l0,0.05,0.05,0.07a1,1,0,0,0,.24.22l0,0h0l0.16,0.07,0.08,0,0.12,0,0.13,0h0.06l0.2,0,0.06,0,0.19-.08h0l0,0a1,1,0,0,0,.24-0.22l0.05-.07,0-.05,35.31-61.08,3.82,72.75A1.11,1.11,0,0,0,2979.89,542Zm-36.32-258.49,46,153.31L2934,454.38ZM2932,453.75l-35.95-29.33,45.41-139.06Zm12.37-174.54,134.85,37.13-87.95,119.22Zm160,179.94-21.29-141.29,68.52,31.4Zm80.88-15.55-30.47-92.33,35.09,24Zm-105.95-124L3065,413l-71.17,22.48ZM2939,612.49l36.25,19L2939,641V612.49Z" transform="translate(-2881.11 -276.78)"/></g></svg>