<svg id="Logo" height="100%" width="100%" xmlns="http://www.w3.org/2000/svg" viewBox="0 0 140 112">
<g id="Peaks"><path d="M104.19,7A4.19,4.19,0,1,0,100,11.19,4.19,4.19,0,0,0,104.19,7Z" fill="#d50032"/><path d="M73.13,16H66.78L54.94,52.16,43,16H36.69L16.11,78.83h5.4l17-52.31c.6-1.8,2.06-1.89,2.66,0L52.25,60.45l-6,18.38h5.4L55,68.67l3.3,10.16h5.49L57.62,60.31l11-33.79c.6-1.8,2.06-1.89,2.66,0L88.35,78.83h5.49Z" fill="#132229"/><path d="M90.46,51.82l8.21-25.31c.6-1.8,2.06-1.89,2.66,0L118.4,78.82h5.49L103.25,16H96.9L87.82,43.74l2.67,8.12Z" fill="#d50032"/></g>
<g id="Text"><path d="M16.8,109l-.37-7.55v-1.39h-.18a7.14,7.14,0,0,1-.27,1.39L13.74,109H10.45l-2.28-7.55a7.13,7.13,0,0,1-.25-1.39H7.73v1.39L7.25,109h-3l1-13.39h4l2.55,8.22a8.82,8.82,0,0,1,.31,1.79h.18a8.64,8.64,0,0,1,.27-1.79L15,95.61h4L20,109Z" fill="#d50032"/><polygon points="23.75 109 23.75 95.61 32.55 95.61 32.55 98.22 27.1 98.22 27.1 100.94 32.2 100.94 32.2 103.54 27.1 103.54 27.1 106.41 32.63 106.41 32.82 109 23.75 109 23.75 109" fill="#d50032"/><path d="M44.48,109l-4-7.18a6.1,6.1,0,0,1-.6-1.59h-.19c0,.51.08,1.08.08,1.59V109h-3V95.61h3.48l3.66,6.58a7.37,7.37,0,0,1,.64,1.55h.19a14.13,14.13,0,0,1-.1-1.55V95.61h3V109Z" fill="#d50032"/><path d="M62.83,97.49c-2,0-3,.84-3,4.82s1,4.81,3,4.81,3-.8,3-4.81S64.78,97.49,62.83,97.49Zm0,11.69c-3.68,0-5.84-1.88-5.84-6.83s2.22-6.93,5.84-6.93,5.84,1.92,5.84,6.89S66.45,109.18,62.83,109.18Z" fill="#132229"/><polygon points="74.86 103.54 74.86 109 72.17 109 72.17 95.61 80.54 95.61 80.54 97.71 74.86 97.71 74.86 101.42 80.21 101.42 80.21 103.54 74.86 103.54 74.86 103.54" fill="#132229"/><polygon points="89.91 109 89.91 95.61 92.6 95.61 92.6 109 89.91 109 89.91 109" fill="#132229"/><path d="M102,97.56H99.84v4.33h2a2,2,0,0,0,2.22-2.27A1.82,1.82,0,0,0,102,97.56ZM107.25,109a6.83,6.83,0,0,1-1.05.09,2.38,2.38,0,0,1-2.45-1.63l-1.95-3.67H99.85V109h-2.6V95.61h4.91c2.78,0,4.61,1.11,4.61,3.91a3.6,3.6,0,0,1-2.47,3.65l1.75,3.11c.25.44.35.55.8.55a2.6,2.6,0,0,0,.43,0V109Z" fill="#132229"/><path d="M115.8,97.49c-2,0-3,.84-3,4.82s1,4.81,3,4.81,3-.8,3-4.81S117.75,97.49,115.8,97.49Zm0,11.69c-3.68,0-5.84-1.88-5.84-6.83s2.22-6.93,5.84-6.93,5.84,1.92,5.84,6.89S119.42,109.18,115.8,109.18Z" fill="#132229"/><path d="M133.06,109l-4.75-8.24a6.1,6.1,0,0,1-.62-1.53h-.18a13.28,13.28,0,0,1,.08,1.53V109h-2.44V95.61H128l4.52,7.82a7.37,7.37,0,0,1,.64,1.48h.18a12.85,12.85,0,0,1-.1-1.48V95.61h2.43V109Z" fill="#132229"/></g>
        </svg>