<svg id="Layer_3" data-name="Layer 3" xmlns="http://www.w3.org/2000/svg" xmlns:xlink="http://www.w3.org/1999/xlink" viewBox="0 0 1390.13 374.73"><defs><style>.cls-1,.cls-7{fill:none;}.cls-2{clip-path:url(#clip-path);}.cls-3{fill:#002e42;}.cls-4,.cls-5{fill:#132229;}.cls-5{stroke:#132229;}.cls-5,.cls-7{stroke-miterlimit:10;stroke-width:2px;}.cls-6,.cls-8{fill:#f2f2f2;}.cls-7{stroke:#f2f2f2;stroke-linecap:round;}.cls-8{font-size:18px;font-family:Cabin;}</style><clipPath id="clip-path" transform="translate(55.95 -1599.88)"><rect class="cls-1" x="-1" y="1558" width="1281" height="439"/></clipPath></defs><title>stats-graphic</title><g class="cls-2"><path class="cls-3" d="M931.78,1894.48l0.71,0.15,0-.23,0-.11-0.08,0H932C932,1894.27,931.84,1894.49,931.78,1894.48Z" transform="translate(55.95 -1599.88)"/><path class="cls-3" d="M1289.4,1791.86h0Z" transform="translate(55.95 -1599.88)"/><path class="cls-3" d="M200.54,1969H201v-0.13l-0.32-.07A0.6,0.6,0,0,1,200.54,1969Z" transform="translate(55.95 -1599.88)"/><path class="cls-3" d="M1289.4,1791.86h0C1289.61,1791.87,1289.5,1791.86,1289.4,1791.86Z" transform="translate(55.95 -1599.88)"/><path class="cls-3" d="M1289,1791.87V1792h0.49v-0.09l-0.07,0H1289Z" transform="translate(55.95 -1599.88)"/><polygon class="cls-3" points="1067.78 134.12 1067.78 134.13 1067.78 134.12 1067.78 134.12"/><path class="cls-3" d="M107.87,1676h0l-0.19,0Z" transform="translate(55.95 -1599.88)"/><path class="cls-3" d="M631,1814h0C630.89,1814,631.28,1814,631,1814Z" transform="translate(55.95 -1599.88)"/><path class="cls-4" d="M1317,1614.4s0,0,0-.07,0-.06,0-0.09a1.6,1.6,0,0,1-.08-0.2l-0.05-.07,0-.06-0.08-.07-0.07-.08-0.08-.05-0.07,0,0,0-0.07,0-0.09,0-0.1,0-0.06,0H1316s-0.05.11-.08,0.11l-142.8,9.37h0l0-.11s-0.05,0-.08,0-0.05,0-.08,0l-77.19,17.71h0l-0.09,0h-0.06l-0.07,3.71,24.36,119,0,0.05,0,0.1,0,0.09a1,1,0,0,0,.09.15l0,0.06,62.27,74.15a1,1,0,0,0,.16.14l0.09,0.07a0.8,0.8,0,0,0,.87.06,1,1,0,0,0,.24-0.11l60.39-44.58-17.63,67.2-9.31-21.07v0l-0.06-.09s0-.06,0-0.08l-0.07-.06-0.06-.08-0.09-.06-0.15-.09-0.09,0h-0.1l-0.17,0h-0.12l-0.09,0-0.18,0-0.09,0h0l-0.08.06-0.09,0-113.22,83.6-24.5-135.28s0,0,0-.08a1,1,0,0,0-.06-0.15l-0.06-.11s-0.07-.07-0.09-0.1a1.7,1.7,0,0,0-.16-0.14s0-.06,0-0.08l-65.85-52.46v-0.09h-0.06a0.91,0.91,0,0,0-.17,0h-0.21l-0.18,0h-0.07l-98.62,27.58-53.59,12.39-0.09,0-0.1,0-0.08.06-0.16.12-0.13.14a1,1,0,0,0-.17.34,1,1,0,0,0,0,.38,0.92,0.92,0,0,0,0,.1,1,1,0,0,0,0,.13s0,0,0,.06l10.67,23.58-60.45,9.28-36.3-46.44,0,0-0.11-.1-0.11-.08-0.09-.05-0.13,0-0.14,0h-0.17l-0.08,0H771l-53.44,8.6-0.05,0h-0.05a0.94,0.94,0,0,0-.13.07,1,1,0,0,0-.18.09,1,1,0,0,0-.14.13,0.69,0.69,0,0,0-.2.32,1,1,0,0,0-.06.18,1,1,0,0,0,0,.2,1,1,0,0,0,0,.14s0,0,0,.06,0,0,0,0l10.34,37.64-28.23,31.37-13.22-50.51v0l0-.07s0,0,0,0a0.93,0.93,0,0,0-.07-0.11,1,1,0,0,0-.07-0.13l-0.05-.05a1,1,0,0,0-.13-0.11l-0.11-.08,0,0h0l-0.16,0-0.15,0H684.7l-0.17,0h-0.15l-0.06,0h0l-53.21,22.39L575.54,1777a1,1,0,0,0-.14-0.05,1,1,0,0,0-.21-0.08,11.92,11.92,0,0,0-.37,0h0a55.39,55.39,0,0,0-.34.14l-35.12,23.06-46.15-8.45-40.67-35.46a1,1,0,0,1-.22-0.15h0l-0.07,0-0.17,0-0.15,0h-0.06l-0.16,0-0.16,0h0l-46,19.44-4.7-29.44a1,1,0,0,0-.06-0.15,1,1,0,0,0-.07-0.19,1,1,0,0,0-.13-0.15,1,1,0,0,0-.12-0.13,1,1,0,0,0-.18-0.1,1,1,0,0,0-.16-0.07,1,1,0,0,0-.2,0,0.93,0.93,0,0,0-.17,0l-105.89,11.12L244,1658.61a0.92,0.92,0,0,0-.06-0.08,1,1,0,0,0-.11-0.14l0-.06h0l-0.1-.07-0.08-.06-0.07,0-0.09,0-0.11,0-0.18,0h-0.09l-0.11,0-0.18,0-0.08,0h0l-0.08.06-0.14.11-0.06,0-102.53,111L151.14,1672a0.89,0.89,0,0,0,0-.1,0.92,0.92,0,0,0,0-.09,0.91,0.91,0,0,0,0-.1,1,1,0,0,0-.14-0.36l-0.11-.14-0.15-.13-0.16-.09-0.19-.06-0.1,0h-0.19l-41,3.11-1.48-73.13v0a3.86,3.86,0,0,0-.1-0.39v0a0.93,0.93,0,0,0-.07-0.09,1,1,0,0,0-.16-0.21l-0.13-.08a1,1,0,0,0-.2-0.11,1,1,0,0,0-.22,0l-0.14,0h0a1,1,0,0,0-.2,0,1,1,0,0,0-.19.05h0l-87.19,43.93a1,1,0,0,0-.16.12l-0.12.09,0,0a1,1,0,0,0-.07.12,1,1,0,0,0-.09.16l0,0.05-74.34,226.06s0,0,0,0l0,0a1,1,0,0,0,0,.16,1,1,0,0,0,0,.2,1,1,0,0,0,.05.18,1,1,0,0,0,.07.18,1,1,0,0,0,.12.15,1,1,0,0,0,.13.14,1,1,0,0,0,.18.1,0.92,0.92,0,0,0,.13.07h0.09l90.62,21.09s0,0.08,0,.08h0a2.43,2.43,0,0,0,.34,0l0.08,0a1.08,1.08,0,0,0,.32-0.14l0,0a1.24,1.24,0,0,0,.22-0.15l62.73-67.39L158,1871.92,140.83,1955c-0.11.54-.15,1.39,0.39,1.5l59.46,12.26a0.11,0.11,0,0,1,.06-0.06l125.84,5.87,0.06,0a1,1,0,0,0,.27,0l0.09,0a1,1,0,0,0,.3-0.18l0-.05a1,1,0,0,0,.15-0.18s0,0,0,0a2,2,0,0,0,.12-0.38s0,0,0,0a1,1,0,0,0,0-.14,1,1,0,0,0,0-.19,1,1,0,0,0-.09-0.19,1,1,0,0,0-.09-0.15,1,1,0,0,0-.15-0.14,0.94,0.94,0,0,0-.1-0.09l-167.2-101.66,34.62-61.45a0.93,0.93,0,0,0,0-.13,0.66,0.66,0,0,0,.06-0.45,1,1,0,0,0,0-.15L184.91,1768l58.18-106.81,49.27,96.56,0,0a1,1,0,0,0,.22.26,0.7,0.7,0,0,0,.06.07c0.11,0.07.33,0.13,0.33,0.16V1758h0.06a3.09,3.09,0,0,0,.29.16l105.63-11,4.75,29.8a1.25,1.25,0,0,0,0,.15s0,0.07,0,.1v0l0,0a1,1,0,0,0,.16.24l0,0,0.07,0.05,0.07,0.06,0.15,0.09,0,0,30.86,13.5,0.2,0.06a1,1,0,0,0,.33,0l0.12,0a1,1,0,0,0,.2-0.06l0.12-.08a1,1,0,0,0,.15-0.11,1,1,0,0,0,.09-0.13,1,1,0,0,0,.1-0.13l15.71-32.26,39.89,34.79,0.08,0,0.2,0.07a2.8,2.8,0,0,0,.47.15v-0.09l-0.28-.06,46.81,8.64a1.2,1.2,0,0,0,.13.07,1,1,0,0,0,.24,0,1,1,0,0,0,.24-0.06,1.23,1.23,0,0,0,.14,0l0.05,0.13,0.12,0,33.94-22.12-7.71,37.28-0.36,0c0,0.06-.3.07-0.3,0.13a1,1,0,0,0,0,.2s0,0,0,0a1,1,0,0,0,.12.3s0,0.06,0,.08a1.27,1.27,0,0,0,.18.26s0,0.15.05,0.17a1.92,1.92,0,0,0,.27.36l0.71,0.15,0-.23,0-.23s-0.12-.06,0-0.08-0.26-.08-0.24-0.09,0,0,0,0l22.73-5.74L656.19,1846h0l0,0a0.46,0.46,0,0,0,.54.1,1.17,1.17,0,0,0,.1-0.05l0.2-.07a1.07,1.07,0,0,0,.11-0.08,1,1,0,0,0,.15-0.11,1.06,1.06,0,0,0,.09-0.12,1,1,0,0,0,.11-0.15l26.88-52.36,13,49.77a1,1,0,0,0,0,.11s0,0.07,0,.1a1.05,1.05,0,0,0,.21.3v0a1.55,1.55,0,0,0,.12.15s0,0.16,0,.17a0.68,0.68,0,0,1,.18.29v0h0a3.1,3.1,0,0,0,.46-0.21s0.07-.21.09-0.22h0a1,1,0,0,0,.31-0.15l0.07-.06,0.09-.08,29.84-33.16A0.94,0.94,0,0,0,729,1810a1,1,0,0,0,.1-0.18,1,1,0,0,0,.06-0.18,0.94,0.94,0,0,0,0-.39,0.92,0.92,0,0,0,0-.1L719,1772.11l51.17-8.24-0.36,54.4a1,1,0,0,0,0,.2,0.74,0.74,0,0,0,.19.44l0,0a1,1,0,0,0,.25.2l0,0,78.94,40.95,0.12,0a2.51,2.51,0,0,0,.36.1v-0.07l-0.21-.05,0.22,0h0.06s0,0,.08,0l0.19-.06,0.09,0,0.16-.11,0.08-.07,0,0,36.19-41.64a0.92,0.92,0,0,0,0-.08,1,1,0,0,0,.1-0.14l25.33-52,14.15,74,0.73,8.1,1.9-1.16-0.61-6.77L1010,1738.36l-1.45,22.64h2l1.52-23.76,63.63,50.72,0.81,3,23.65,130.59,0.85,3.72h0l0.12,0.09,0.07,0.06s0-.21,0-0.21l0-.19h0l75.94,44.55a1.37,1.37,0,0,0,.26.17s0,0.12,0,.13,0,0.15,0,.15h0a2.23,2.23,0,0,0,.35-0.05l0.11,0a1.07,1.07,0,0,0,.22-0.11l0.11-.08a1,1,0,0,0,.17-0.17l0.08-.1,0,0a1.83,1.83,0,0,1,.11-0.29l10-45.61,20.42,31.16h0v0l0,0,0,0,0.06,0.07,0.13,0.12,0.08,0.05,0.07,0h0l37,18.39a1,1,0,0,0,.24.08h0a1,1,0,0,0,.36,0l0.12,0a1,1,0,0,0,.22-0.09l0.11-.08a1,1,0,0,0,.16-0.15l0.08-.12,0-.07s0.13-.06.14-0.1,0.15-.05.16-0.09l6.38-30.84s-0.11-.05-0.11-0.06a1.27,1.27,0,0,0-.05-0.21,1.06,1.06,0,0,0,0-.21l0,0a1,1,0,0,0-.07-0.12,1,1,0,0,0-.1-0.19,1,1,0,0,0-.13-0.13,1,1,0,0,0-.16-0.13,1,1,0,0,0-.18-0.08,1,1,0,0,0-.14-0.06h0a2.38,2.38,0,0,0-.39,0h0L1210.39,1953,1190,1921.9l126-6.17a0.93,0.93,0,0,0,.18,0,1,1,0,0,0,.19,0,1,1,0,0,0,.16-0.11,0.54,0.54,0,0,0,.26-0.28,1,1,0,0,0,.1-0.16,1,1,0,0,0,0-.2,1,1,0,0,0,0-.18l-2.06-102.54h0a1,1,0,0,0-.07-0.29s0-.06,0-0.09a1,1,0,0,0-.07-0.1,1,1,0,0,0-.16-0.22h0l-0.09-.06a0.67,0.67,0,0,0-.45-0.18,0.92,0.92,0,0,0-.15,0h0a1,1,0,0,0-.28.06l-0.11,0-0.1.07a1,1,0,0,0-.22.16h0l-43.69,47.67-22.73-68.55a0.89,0.89,0,0,0-.05-0.09,1,1,0,0,0-.07-0.14l0,0,0,0-0.1-.1-0.12-.1-0.08-.05-0.13,0-0.09,0H1246l-0.09,0h-0.29l-0.09,0h0l-0.1.06-0.13.06,0,0-61.92,45.7-61.29-73,50-135.39-5,95.26a1,1,0,0,0,0,.2,1,1,0,0,0,0,.14,1,1,0,0,0,.16.31v0a1,1,0,0,0,.28.24h0l68.08,38.07,0.08,0.17a0.89,0.89,0,0,0,.06.07,1,1,0,0,0,.18.22l0.13,0.11,0.07,0.06a1,1,0,0,0,.27.1h0a1,1,0,0,0,.31,0l0.16,0,52.39,29.3,0.18,0.13h0.37l0.11,0,0.13,0,0.13,0h0l43.49-22.66h0a1,1,0,0,0,.2-0.16,1.51,1.51,0,0,0,.28-0.43,1,1,0,0,0,0-.14,1,1,0,0,0,0-.25s0,0,0,0Zm-223.37,29.15M35.31,1890.82l-89-20.67,71.84-218.46-4.1,135.12h0s0,0.05,0,.08a1,1,0,0,0,0,.16,1,1,0,0,0,0,.13s0,0,0,0l0,0.08,0,0.07,0.05,0.08,0,0a1,1,0,0,0,.14.14h0l30.22,22.83h0a0.94,0.94,0,0,0,.64.18l0.09,0,0.17,0,0.1,0,0.14-.08,0.09-.08,0.1-.09,44.71-52.72,7,65.86ZM17.07,1787.1l71-29.42-42.94,50.63Zm305.67,185.28-121.25-5.89-40.71-92.57ZM199,1966.51L142.9,1954.9l16.57-80.11ZM192.63,1809L158.3,1869.9l-58.54-46.61-6.89-64.7,51,66.12a1,1,0,0,0,.15.14,0.93,0.93,0,0,0,.07.07h0a0.91,0.91,0,0,0,.72.15l0.09,0a1,1,0,0,0,.34-0.16h0a1,1,0,0,0,.21-0.22l37.93-54.39ZM183,1767.36l-38.39,55.05-52.3-67.85-0.05,0-0.07-.08,0,0h0l-0.07,0-0.12-.08-0.09,0-0.05,0H91.72l-0.14,0H91.4l-0.07,0-0.14,0H91.13l-75,31.08,4.24-139.89,85.26-43,1.47,72.6v0s0,0,0,0a1,1,0,0,0,0,.16,1,1,0,0,0,0,.14,1,1,0,0,0,.1.17,0.56,0.56,0,0,0,.23.24l0.08,0.06a0.93,0.93,0,0,0,.29.1h0a0.94,0.94,0,0,0,.22,0h0.05L149,1673l-11.5,99.22s0,0.05,0,.08a1.2,1.2,0,0,0,.06.37,1,1,0,0,0,.07.15,1,1,0,0,0,.13.18s0,0.05.05,0.07l0.09,0.06,0.08,0.06a1,1,0,0,0,.3.13h0.13a1,1,0,0,0,.32,0h0a1,1,0,0,0,.3-0.15l0.07-.06,0.08-.07,99.14-107.31ZM435.11,1789l-27.85-12.18,42.54-18Zm221.05,54.68-65.79-33.05-0.11,0a0.72,0.72,0,0,0-.19-0.06,0.52,0.52,0,0,0-.16,0,0.8,0.8,0,0,1,.1.06l-21.19,5.62,7.59-36.66,54.3,34.23c0.1,0.07-.12,0-0.12,0h0L631,1814l0.33,0h0l51.17-21.61ZM885.06,1817L849.48,1858l-77.69-40.3,0.34-52.09L807,1810.22l0,0a1,1,0,0,0,.17.15s0.05,0.25.08,0.27a1.4,1.4,0,0,0,.3.33H808v-0.31a0.74,0.74,0,0,0,.15,0l62.23-9.6a0.42,0.42,0,0,0,0,0l0.17-.06s0,0,0,0a0.93,0.93,0,0,0,.16-0.12,1,1,0,0,0,.13-0.13,0.87,0.87,0,0,0,.21-0.51,1,1,0,0,0,0-.21s0,0,0-.06a1.09,1.09,0,0,1-.08-0.26l-10.71-23.67,50.39-11.65Zm42.78,20.54-14.14-74,94.75-26.5Zm324.45,105.58-5.78,28-33.57-16.66Zm-65.15-22.47s0.07,0,.07,0,0,0,0,0L1177,1967.36l-73.47-42.92,110.56-81.72-27.08,78h0.14Zm58.74-126.22,22.2,67,0,0.06,0,0.08a1,1,0,0,0,.19.26v0h0a1,1,0,0,0,.17.12l0.05,0,0.19,0.07,0.05,0h0.25l0.09,0,0.17,0h0a1,1,0,0,0,.28-0.16l0.07-.05,0.05,0,43.16-47.09,2,99.08-125.26,6.13,26.68-77.21,9.3,21-0.15.56a1,1,0,0,0,.71,1.22h0.05a1,1,0,0,0,1.17-.73Zm-124.78-35-24-117.17,73.46-16.87ZM1169,1722.2l4.92-94.34,60.22,130.77Zm67.62,37-62-134.57,139.58-9Zm52.3,30L1238,1760.81l76.1-140.81Zm2.05-.21,24.85-166.81,16.29,145.38Z" transform="translate(55.95 -1599.88)"/><path class="cls-3" d="M849.54,1860.1l0.21,0.05h0Z" transform="translate(55.95 -1599.88)"/><path class="cls-3" d="M1011.74,1734.21s0.06-.2.08-0.2l-0.22.14v0.15h0S1011.71,1734.19,1011.74,1734.21Z" transform="translate(55.95 -1599.88)"/><path class="cls-3" d="M1043,1733.86V1734h0.16v-0.14a0.25,0.25,0,0,1-.11-0.08h0v0.07Z" transform="translate(55.95 -1599.88)"/></g><polygon class="cls-5" points="383.02 77.54 470.37 119.6 491.95 214.12 431.5 289.92 334.55 289.92 274.1 214.12 295.68 119.6 383.02 77.54"/><polygon class="cls-5" points="1008.74 77.54 1096.09 119.6 1117.66 214.12 1057.21 289.92 960.26 289.92 899.82 214.12 921.39 119.6 1008.74 77.54"/><path class="cls-6" d="M953.18,1733.81a0.9,0.9,0,0,1-.71-0.35,59.73,59.73,0,0,1-5.07-7.94,50.14,50.14,0,0,1-3.49-8,29.33,29.33,0,0,1-1.6-9.07,10.87,10.87,0,1,1,21.74,0,29.39,29.39,0,0,1-1.6,9.07,50.14,50.14,0,0,1-3.49,8,60,60,0,0,1-5.07,7.94,0.9,0.9,0,0,1-.71.35h0Zm0-34.42a9.07,9.07,0,0,0-9.06,9.06c0,5.9,2.65,12.07,4.88,16.22a62.35,62.35,0,0,0,4.18,6.72,62.29,62.29,0,0,0,4.2-6.75c2.22-4.14,4.86-10.3,4.86-16.19A9.07,9.07,0,0,0,953.18,1699.39Z" transform="translate(55.95 -1599.88)"/><path class="cls-6" d="M953.18,1713.88a5.44,5.44,0,1,1,5.44-5.44A5.44,5.44,0,0,1,953.18,1713.88Zm0-9.06a3.62,3.62,0,1,0,3.62,3.62A3.63,3.63,0,0,0,953.18,1704.83Z" transform="translate(55.95 -1599.88)"/><path class="cls-6" d="M327.07,1717.56a10,10,0,1,1,10-10A10,10,0,0,1,327.07,1717.56Zm0-18.17a8.17,8.17,0,1,0,8.17,8.17A8.18,8.18,0,0,0,327.07,1699.39Z" transform="translate(55.95 -1599.88)"/><path class="cls-6" d="M341.6,1733.91H312.54a2.73,2.73,0,0,1-2.72-2.72,10.85,10.85,0,0,1,2.23-6,13,13,0,0,1,5.21-4,27.95,27.95,0,0,1,19.64,0,13,13,0,0,1,5.21,4,10.85,10.85,0,0,1,2.23,6A2.73,2.73,0,0,1,341.6,1733.91Zm-14.53-12.72c-6.33,0-11,1.73-13.52,5a9.23,9.23,0,0,0-1.92,5,0.91,0.91,0,0,0,.91.9H341.6a0.91,0.91,0,0,0,.91-0.91,9.2,9.2,0,0,0-1.92-5C338.08,1722.92,333.4,1721.19,327.07,1721.19Z" transform="translate(55.95 -1599.88)"/><polygon class="cls-5" points="694.73 77.54 782.08 119.6 803.65 214.12 743.2 289.92 646.25 289.92 585.81 214.12 607.38 119.6 694.73 77.54"/><path class="cls-6" d="M638.77,1710.71L628,1717.55V1733h22v-15.45ZM648,1731H630v-12.5l8.77-5.54,9.23,5.74V1731Z" transform="translate(55.95 -1599.88)"/><line class="cls-7" x1="694.8" y1="111.71" x2="694.8" y2="98.87"/><line class="cls-7" x1="690.26" y1="103.04" x2="699.34" y2="103.04"/><text class="cls-8" transform="translate(366.19 272.46)">M<tspan x="14.4" y="0">en</tspan></text><text class="cls-8" transform="translate(659.52 272.46)">Chu<tspan x="30.28" y="0">r</tspan><tspan x="35.82" y="0">ches</tspan></text><text class="cls-8" transform="translate(988.01 272.46)">Cities</text></svg>